<svg width="40" height="40" viewBox="0 0 40 40" fill="none" xmlns="http://www.w3.org/2000/svg">
<path d="M19.9999 36.6667C19.611 36.6667 19.2777 36.5556 18.9999 36.3334C18.7221 36.1112 18.5138 35.8195 18.3749 35.4584C17.8471 33.9028 17.1805 32.4445 16.3749 31.0834C15.5971 29.7223 14.4999 28.125 13.0833 26.2917C11.6666 24.4584 10.5138 22.7084 9.62492 21.0417C8.76381 19.375 8.33325 17.3612 8.33325 15C8.33325 11.75 9.45825 9.00004 11.7083 6.75004C13.986 4.47226 16.7499 3.33337 19.9999 3.33337C23.2499 3.33337 25.9999 4.47226 28.2499 6.75004C30.5277 9.00004 31.6666 11.75 31.6666 15C31.6666 17.5278 31.1805 19.6389 30.2083 21.3334C29.2638 23 28.1666 24.6528 26.9166 26.2917C25.4166 28.2917 24.2777 29.9584 23.4999 31.2917C22.7499 32.5973 22.1249 33.9862 21.6249 35.4584C21.486 35.8473 21.2638 36.1528 20.9583 36.375C20.6805 36.5695 20.361 36.6667 19.9999 36.6667ZM19.9999 19.1667C21.1666 19.1667 22.1527 18.7639 22.9583 17.9584C23.7638 17.1528 24.1666 16.1667 24.1666 15C24.1666 13.8334 23.7638 12.8473 22.9583 12.0417C22.1527 11.2362 21.1666 10.8334 19.9999 10.8334C18.8333 10.8334 17.8471 11.2362 17.0416 12.0417C16.236 12.8473 15.8333 13.8334 15.8333 15C15.8333 16.1667 16.236 17.1528 17.0416 17.9584C17.8471 18.7639 18.8333 19.1667 19.9999 19.1667Z" fill="black" fill-opacity="0.2"/>
</svg>
